# xmcd
#
# Track frame offsets:
#	150
#	22397
#	44855
#	64192
#	80720
#	100832
#	115622
#	132612
#	155485
#
# Disc length: 2267 seconds
#
# Revision: 1
# Processed by: cddbd v1.5.1PL0 Copyright (c) Steve Scherf et al.
# Submitted via: CDex 1.50Beta5
#
DISCID=8408d909
DTITLE=鈴木雄大 - La Shissa
DYEAR=1900
DGENRE=Pop
TTITLE0=Oh, Darling
TTITLE1=夜ヲ壊セ
TTITLE2=ビータ・ブルース
TTITLE3=イソガシ・バンド
TTITLE4=K」イrav」タn
TTITLE5=BOXER
TTITLE6=外苑月光ストリート
TTITLE7=哀しきアイドル
TTITLE8=NEWS
EXTD=
EXTT0=
EXTT1=
EXTT2=
EXTT3=
EXTT4=
EXTT5=
EXTT6=
EXTT7=
EXTT8=
PLAYORDER=
